<?xml version="1.0" standalone="no"?>
<!DOCTYPE svg PUBLIC "-//W3C//DTD SVG 20010904//EN"
 "http://www.w3.org/TR/2001/REC-SVG-20010904/DTD/svg10.dtd">
<svg version="1.0" xmlns="http://www.w3.org/2000/svg"
 width="491.000000pt" height="491.000000pt" viewBox="0 0 491.000000 491.000000"
 preserveAspectRatio="xMidYMid meet">
<metadata>
Created by potrace 1.14, written by Peter Selinger 2001-2017
</metadata>
<g transform="translate(0.000000,491.000000) scale(0.100000,-0.100000)"
fill="#000000" stroke="none">
<path d="M2268 4905 c-2 -1 -39 -5 -83 -9 -44 -3 -89 -8 -100 -10 -11 -2 -42
-7 -70 -11 -78 -11 -245 -52 -352 -86 -500 -160 -955 -504 -1252 -948 -191
-285 -333 -641 -376 -944 -3 -27 -8 -59 -11 -70 -25 -130 -25 -506 1 -657 2
-14 6 -42 9 -62 43 -288 175 -634 338 -891 28 -43 48 -84 44 -92 -3 -8 -32
-54 -65 -102 -144 -213 -266 -438 -317 -588 -22 -62 -28 -99 -28 -165 0 -85 0
-85 44 -147 62 -85 103 -107 200 -106 163 3 419 119 788 360 l113 73 27 -18
c112 -79 410 -205 602 -256 223 -59 380 -79 615 -80 224 -1 327 10 536 55 445
96 842 313 1170 639 234 233 388 456 522 760 27 62 52 123 52 130 1 3 13 41
28 85 29 87 71 261 83 340 3 28 8 59 10 70 10 54 18 195 18 325 1 209 -14 346
-58 545 -45 207 -186 556 -277 686 l-18 26 65 99 c252 381 379 663 375 828 -3
101 -23 130 -126 188 -54 30 -68 33 -140 33 -60 -1 -99 -7 -155 -27 -162 -57
-344 -154 -571 -304 -69 -46 -129 -84 -134 -84 -4 0 -42 22 -84 49 -195 124
-447 234 -671 291 -109 28 -233 50 -355 65 -57 7 -391 15 -397 10z m372 -259
c19 -3 53 -7 75 -10 183 -20 523 -128 679 -215 17 -10 54 -30 81 -45 136 -75
323 -218 453 -345 l63 -62 -21 -26 c-20 -26 -129 -148 -180 -203 -14 -15 -49
-53 -79 -86 -353 -383 -680 -722 -1226 -1268 -528 -528 -817 -808 -1236 -1196
-121 -113 -299 -270 -304 -270 -6 0 -51 46 -136 136 -242 257 -455 682 -514
1024 -3 19 -10 53 -15 75 -14 63 -24 209 -25 350 0 295 46 532 161 816 189
471 566 875 1034 1110 238 119 495 193 750 215 41 4 76 8 78 9 6 5 325 -3 362
-9z m1790 -132 c0 -8 -105 -149 -192 -257 l-79 -97 -104 97 c-58 54 -101 100
-97 104 10 9 231 88 352 125 115 35 120 37 120 28z m-88 -1056 c58 -118 74
-159 113 -273 35 -106 71 -245 81 -314 2 -20 6 -45 9 -56 25 -118 25 -496 1
-621 -2 -12 -7 -37 -10 -55 -34 -210 -101 -414 -203 -614 -332 -655 -987
-1103 -1713 -1172 -150 -14 -388 -8 -530 13 -132 19 -317 68 -452 120 -108 41
-260 115 -256 124 2 4 77 65 168 136 91 71 176 138 190 150 14 12 70 59 125
105 105 87 382 328 450 390 22 21 51 47 65 59 134 116 720 692 900 885 207
223 232 251 390 430 62 72 116 132 120 135 25 21 449 547 484 603 10 15 21 27
25 27 4 0 23 -33 43 -72z m-3593 -2708 c0 -13 -347 -275 -354 -268 -2 2 7 40
21 83 14 44 27 87 29 95 3 15 86 247 100 283 7 16 24 2 106 -85 54 -56 98
-105 98 -108z"/>
<path d="M2206 4524 c-186 -45 -346 -209 -391 -399 -15 -68 -13 -189 5 -255
48 -177 185 -317 361 -371 349 -107 702 167 684 530 -7 147 -52 248 -155 351
-135 136 -320 189 -504 144z m239 -142 c169 -48 288 -215 280 -391 -11 -221
-200 -390 -419 -374 -209 15 -369 194 -361 404 4 112 45 200 127 274 105 95
239 126 373 87z"/>
<path d="M1233 3826 c-116 -37 -193 -140 -199 -269 -4 -93 17 -148 86 -218
183 -186 484 -71 504 192 12 160 -129 310 -289 308 -33 0 -79 -6 -102 -13z
m165 -100 c108 -39 157 -175 100 -277 -78 -139 -286 -128 -349 19 -40 93 -13
174 83 248 32 25 113 30 166 10z"/>
<path d="M1816 3500 c-63 -19 -106 -83 -106 -158 0 -121 123 -196 234 -143 60
29 90 78 90 145 -1 115 -106 189 -218 156z m118 -100 c31 -30 27 -87 -8 -116
-53 -46 -136 -10 -136 58 1 78 89 113 144 58z"/>
</g>
</svg>
